<?xml version="1.0" encoding="UTF-8"?>
<svg version="1.1" xmlns="http://www.w3.org/2000/svg" width="200" height="200">
<path d="M0 0 C59.4 0 118.8 0 180 0 C180.33 0.66 180.66 1.32 181 2 C180.28173828 3.69458008 180.28173828 3.69458008 179.0703125 5.76953125 C178.61350098 6.56077393 178.15668945 7.3520166 177.68603516 8.16723633 C176.91332275 9.47664185 176.91332275 9.47664185 176.125 10.8125 C175.32328369 12.19248169 175.32328369 12.19248169 174.50537109 13.6003418 C172.67874844 16.73860471 170.83976797 19.86942708 169 23 C167.98381142 24.7369735 166.96763216 26.47395254 165.95201111 28.21125793 C162.7229992 33.73438303 159.48683123 39.25327923 156.24609375 44.76953125 C147.59489654 59.4960149 138.97925478 74.24083762 130.52905273 89.08374023 C126.24485518 96.5985516 121.88228128 104.06628699 117.51196289 111.53125 C114.22282644 117.15968006 110.96015064 122.80215174 107.73046875 128.46484375 C107.37201874 129.09330704 107.01356873 129.72177032 106.64425659 130.36927795 C104.89883379 133.43141932 103.15630486 136.49517527 101.41699219 139.56079102 C98.06303775 145.45664052 94.65044775 151.28260006 91 157 C87.21122721 155.73707574 86.96710351 154.65511028 85.1015625 151.20703125 C84.54670166 150.19584229 83.99184082 149.18465332 83.42016602 148.14282227 C82.53155884 146.49431274 82.53155884 146.49431274 81.625 144.8125 C80.35762883 142.50402112 79.08805597 140.19674976 77.81640625 137.890625 C77.49512253 137.30632217 77.17383881 136.72201935 76.84281921 136.12001038 C73.85638868 130.70250903 70.73241397 125.37407479 67.5625 120.0625 C60.90289573 108.87473073 54.39853242 97.60051119 47.90722656 86.31445312 C44.7763508 80.87349443 41.63788195 75.43692011 38.5 70 C34.73630409 63.47770002 30.97355375 56.95486233 27.21484375 50.4296875 C20.89489797 39.46082969 14.55988113 28.50099615 8.1875 17.5625 C7.59445068 16.54333496 7.00140137 15.52416992 6.39038086 14.47412109 C5.84260986 13.5352002 5.29483887 12.5962793 4.73046875 11.62890625 C4.24989014 10.80463135 3.76931152 9.98035645 3.27416992 9.13110352 C2.23300282 7.38970715 1.12543875 5.68815812 0 4 C0 2.68 0 1.36 0 0 Z " fill="#3E3E3E" transform="translate(10,28)"/>
<path d="M0 0 C15.18 0 30.36 0 46 0 C46.495 2.475 46.495 2.475 47 5 C47.66 5 48.32 5 49 5 C49.495 7.475 49.495 7.475 50 10 C50.66 10 51.32 10 52 10 C52.42297363 10.76554199 52.84594727 11.53108398 53.28173828 12.31982422 C54.87943079 15.20945371 56.47874538 18.09817358 58.07910156 20.98632812 C58.76625846 22.22718848 59.452801 23.46838929 60.13867188 24.70996094 C61.13503023 26.51331129 62.13336281 28.31554874 63.1328125 30.1171875 C63.45904602 30.70610779 63.78527954 31.29502808 64.12139893 31.90179443 C66.60484548 36.35791436 69.23204808 40.70876436 71.96435547 45.01611328 C73 47 73 47 73 50 C73.66 50 74.32 50 75 50 C75.67154933 51.28913487 76.33708859 52.58140204 77 53.875 C77.37125 54.59429687 77.7425 55.31359375 78.125 56.0546875 C79 58 79 58 79 60 C79.66 60 80.32 60 81 60 C84.1947831 65.8395486 87.3679489 71.68903223 90.5 77.5625 C94.56386532 85.11095159 98.94454334 92.38248031 103.625 99.5625 C112.68073972 113.8187643 112.68073972 113.8187643 111 122 C108.95209667 126.53917491 106.40136625 130.75461933 103.8125 135 C103.13058333 136.14750115 102.45023192 137.29593398 101.77148438 138.4453125 C98.2621721 144.34780456 94.66492839 150.1930455 91 156 C87.21122721 154.73707574 86.96710351 153.65511028 85.1015625 150.20703125 C84.54670166 149.19584229 83.99184082 148.18465332 83.42016602 147.14282227 C82.53155884 145.49431274 82.53155884 145.49431274 81.625 143.8125 C80.35762883 141.50402112 79.08805597 139.19674976 77.81640625 136.890625 C77.49512253 136.30632217 77.17383881 135.72201935 76.84281921 135.12001038 C73.85638868 129.70250903 70.73241397 124.37407479 67.5625 119.0625 C60.90289573 107.87473073 54.39853242 96.60051119 47.90722656 85.31445312 C44.7763508 79.87349443 41.63788195 74.43692011 38.5 69 C34.73630409 62.47770002 30.97355375 55.95486233 27.21484375 49.4296875 C20.89489797 38.46082969 14.55988113 27.50099615 8.1875 16.5625 C7.59445068 15.54333496 7.00140137 14.52416992 6.39038086 13.47412109 C5.84260986 12.5352002 5.29483887 11.5962793 4.73046875 10.62890625 C4.24989014 9.80463135 3.76931152 8.98035645 3.27416992 8.13110352 C2.23300282 6.38970715 1.12543875 4.68815812 0 3 C0 2.01 0 1.02 0 0 Z " fill="#161616" transform="translate(10,29)"/>
<path d="M0 0 C59.4 0 118.8 0 180 0 C180.33 0.66 180.66 1.32 181 2 C180.28173828 3.69458008 180.28173828 3.69458008 179.0703125 5.76953125 C178.61350098 6.56077393 178.15668945 7.3520166 177.68603516 8.16723633 C176.91332275 9.47664185 176.91332275 9.47664185 176.125 10.8125 C175.32328369 12.19248169 175.32328369 12.19248169 174.50537109 13.6003418 C172.67874844 16.73860471 170.83976797 19.86942708 169 23 C167.983863 24.73688534 166.96773498 26.47377602 165.95214844 28.21098328 C163.45704448 32.47887637 160.95964058 36.74538864 158.453125 41.0065918 C154.91622246 47.01965383 151.39187775 53.03907319 147.90625 59.08203125 C146.9479126 60.73948364 146.9479126 60.73948364 145.97021484 62.43041992 C144.76879702 64.5104083 143.57101407 66.59250183 142.37744141 68.67700195 C141.84296387 69.60085693 141.30848633 70.52471191 140.7578125 71.4765625 C140.2952002 72.28174316 139.83258789 73.08692383 139.35595703 73.91650391 C138.06818891 75.89522432 136.7347354 77.40945372 135 79 C134.731875 78.51273437 134.46375 78.02546875 134.1875 77.5234375 C128.90276787 67.96224449 123.45261419 58.4958986 117.96850586 49.0480957 C113.89315276 42.02467505 109.82669768 34.99608718 105.8125 27.9375 C105.42586182 27.26477051 105.03922363 26.59204102 104.64086914 25.89892578 C102 21.23097493 102 21.23097493 102 19 C101.34 19 100.68 19 100 19 C99.68546875 18.34773438 99.3709375 17.69546875 99.046875 17.0234375 C96.15775494 11.09546957 96.15775494 11.09546957 92.6875 5.5 C91 3 91 3 91 1 C60.97 1 30.94 1 0 1 C0 0.67 0 0.34 0 0 Z " fill="#666666" transform="translate(10,28)"/>
<path d="M0 0 C59.4 0 118.8 0 180 0 C180.33 0.66 180.66 1.32 181 2 C180.20239258 3.83740234 180.20239258 3.83740234 178.89453125 6.0859375 C178.41081055 6.92552002 177.92708984 7.76510254 177.42871094 8.63012695 C176.89536133 9.53593506 176.36201172 10.44174316 175.8125 11.375 C175.2752832 12.30078857 174.73806641 13.22657715 174.18457031 14.18041992 C168.5559234 23.84576494 162.79896138 33.4360645 157 43 C156 41 156 41 155.59375 38.7109375 C153.1027408 27.33751393 144.48434929 15.97895419 138.23046875 6.24609375 C137 4 137 4 137 1 C91.79 1 46.58 1 0 1 C0 0.67 0 0.34 0 0 Z " fill="#9A9A9A" transform="translate(10,28)"/>
<path d="M0 0 C0.99 0.66 1.98 1.32 3 2 C2.01 3.32 1.02 4.64 0 6 C-0.99 5.67 -1.98 5.34 -3 5 C-3.33 4.01 -3.66 3.02 -4 2 C-2.68 1.34 -1.36 0.68 0 0 Z " fill="#474747" transform="translate(101,179)"/>
<path d="M0 0 C4.875 1.75 4.875 1.75 6 4 C5.34 5.32 4.68 6.64 4 8 C2.68 5.36 1.36 2.72 0 0 Z " fill="#3F3F3F" transform="translate(37,77)"/>
<path d="" fill="#FFFFFF" transform="translate(0,0)"/>
<path d="" fill="#FFFFFF" transform="translate(0,0)"/>
<path d="" fill="#FFFFFF" transform="translate(0,0)"/>
<path d="" fill="#FFFFFF" transform="translate(0,0)"/>
<path d="" fill="#FFFFFF" transform="translate(0,0)"/>
<path d="" fill="#FFFFFF" transform="translate(0,0)"/>
</svg>
